<svg width="923" height="146" viewBox="0 0 923 146" fill="none" xmlns="http://www.w3.org/2000/svg">
<path d="M0 125H923V146H0V125Z" fill="black"/>
<path d="M44.5909 106.483C66.6818 106.483 80.3864 93.6477 81.0511 74.2159H57.6818C56.7614 82.5511 51.75 87.1023 44.8977 87.1023C36.1023 87.1023 30.375 79.6875 30.375 65.7273C30.375 51.8693 36.1534 44.4545 44.8977 44.4545C52.0568 44.4545 56.7102 49.3125 57.6818 57.3409H81.0511C80.4886 38.0114 66.375 25.4318 44.5398 25.4318C19.8409 25.4318 4.90909 41.8977 4.90909 65.983C4.90909 89.9659 19.7386 106.483 44.5909 106.483Z" fill="black"/>
<path d="M130.513 106.483C155.212 106.483 170.195 90.1705 170.195 65.983C170.195 41.7443 155.212 25.4318 130.513 25.4318C105.814 25.4318 90.831 41.7443 90.831 65.983C90.831 90.1705 105.814 106.483 130.513 106.483ZM130.666 87.6136C121.411 87.6136 116.297 78.8182 116.297 65.8295C116.297 52.7898 121.411 43.9432 130.666 43.9432C139.615 43.9432 144.729 52.7898 144.729 65.8295C144.729 78.8182 139.615 87.6136 130.666 87.6136Z" fill="black"/>
<path d="M183.004 105H208.01V58.517C208.01 50.7443 212.561 45.7841 219.107 45.7841C225.601 45.7841 229.896 50.3352 229.896 57.5966V105H253.93V58.108C253.93 50.5909 258.072 45.7841 264.976 45.7841C271.317 45.7841 275.817 50.0284 275.817 57.8523V105H300.822V52.125C300.822 35.5057 290.595 25.4318 275.766 25.4318C264.158 25.4318 255.004 31.517 252.089 40.875H251.271C249.175 31.4659 240.737 25.4318 229.845 25.4318C219.107 25.4318 210.925 31.3125 207.652 40.875H206.783V26.4545H183.004V105Z" fill="black"/>
<path d="M316.317 105H341.322V58.517C341.322 50.7443 345.874 45.7841 352.419 45.7841C358.913 45.7841 363.209 50.3352 363.209 57.5966V105H387.243V58.108C387.243 50.5909 391.385 45.7841 398.288 45.7841C404.629 45.7841 409.129 50.0284 409.129 57.8523V105H434.135V52.125C434.135 35.5057 423.908 25.4318 409.078 25.4318C397.47 25.4318 388.317 31.517 385.402 40.875H384.584C382.487 31.4659 374.05 25.4318 363.158 25.4318C352.419 25.4318 344.237 31.3125 340.964 40.875H340.095V26.4545H316.317V105Z" fill="black"/>
<path d="M486.294 106.483C510.993 106.483 525.976 90.1705 525.976 65.983C525.976 41.7443 510.993 25.4318 486.294 25.4318C461.595 25.4318 446.612 41.7443 446.612 65.983C446.612 90.1705 461.595 106.483 486.294 106.483ZM486.447 87.6136C477.192 87.6136 472.078 78.8182 472.078 65.8295C472.078 52.7898 477.192 43.9432 486.447 43.9432C495.396 43.9432 500.51 52.7898 500.51 65.8295C500.51 78.8182 495.396 87.6136 486.447 87.6136Z" fill="black"/>
<path d="M563.791 60.2045C563.842 51.2557 569.058 45.9375 576.984 45.9375C584.911 45.9375 589.615 51.1534 589.564 59.8466V105H614.57V54.9375C614.621 37.2443 603.831 25.4318 587.314 25.4318C575.706 25.4318 566.911 31.3125 563.433 40.875H562.564V26.4545H538.786V105H563.791V60.2045Z" fill="black"/>
<path d="M655.057 0.272724H630.051V105H655.057V0.272724Z" fill="black"/>
<path d="M693.115 106.33C704.058 106.33 711.626 102.085 715.922 94.0568H716.536V105H740.058V51.6136C740.058 34.9943 725.28 25.4318 705.286 25.4318C684.166 25.4318 672.2 36.0682 670.206 50.3864L693.268 51.2045C694.342 46.1932 698.484 43.125 705.081 43.125C711.217 43.125 715.104 46.0909 715.104 51.358V51.6136C715.104 56.4205 709.888 57.4432 696.49 58.6193C680.587 59.9489 667.291 65.8295 667.291 83.2159C667.291 98.7614 678.081 106.33 693.115 106.33ZM700.837 89.9659C695.058 89.9659 690.967 87.2045 690.967 81.9886C690.967 76.9261 694.956 73.858 702.064 72.7841C706.717 72.1193 712.445 71.0966 715.257 69.6136V77.0795C715.257 84.75 708.814 89.9659 700.837 89.9659Z" fill="black"/>
<path d="M755.348 105H780.098V92.267H780.865C784.036 99.5284 791.092 106.125 802.956 106.125C820.342 106.125 834.354 92.5227 834.354 65.7784C834.354 38.0625 819.524 25.4318 803.109 25.4318C790.683 25.4318 783.882 32.6932 780.865 39.9034H780.354V0.272724H755.348V105ZM779.842 65.7273C779.842 52.892 785.161 44.9659 794.314 44.9659C803.57 44.9659 808.683 53.0966 808.683 65.7273C808.683 78.4091 803.57 86.642 794.314 86.642C785.161 86.642 779.842 78.4602 779.842 65.7273Z" fill="black"/>
<path d="M916.031 50.4375C914.702 34.892 901.969 25.4318 880.696 25.4318C859.423 25.4318 845.872 34.6875 845.974 50.4375C845.872 62.5057 853.594 70.2784 869.293 73.1932L882.997 75.8011C889.491 77.0795 892.457 79.125 892.56 82.6023C892.457 86.5398 888.06 89.1477 881.668 89.1477C874.56 89.1477 869.753 86.0795 868.679 80.3523L843.98 80.9659C845.77 96.5114 859.117 106.483 881.565 106.483C902.582 106.483 917.872 96 917.974 79.8409C917.872 68.3864 910.304 61.5852 894.656 58.5682L879.52 55.7045C872.872 54.375 870.724 52.0227 870.776 49.0057C870.724 45.017 875.378 42.5625 881.156 42.5625C887.753 42.5625 892.355 46.0909 893.071 51.0511L916.031 50.4375Z" fill="black"/>
</svg>
